<svg id="Слой_1_копия_" data-name="Слой 1 (копия)" xmlns="http://www.w3.org/2000/svg" viewBox="0 0 512 512"><defs><style>.cls-1{fill:#5b6072;}.cls-2{fill:#6f7486;}.cls-2,.cls-6,.cls-8{fill-rule:evenodd;}.cls-3,.cls-6{fill:#d7ddeb;}.cls-4{font-size:49.86px;font-family:RobotoMono-Regular, Roboto Mono;}.cls-5{fill:#aeb8d2;}.cls-7{fill:none;stroke-linecap:round;stroke-linejoin:round;stroke-width:4px;}.cls-7,.cls-8{stroke:#5c6174;}.cls-8{fill:#fff;stroke-miterlimit:10;stroke-width:0.25px;}</style></defs><rect class="cls-1" x="188.2" y="231.07" width="141.07" height="255.39"/><path class="cls-2" d="M336.37,261.47H181.1a29.19,29.19,0,0,0-28.75,24.16L128.52,421.84a29.18,29.18,0,0,0,28.75,34.22H360.21A29.19,29.19,0,0,0,389,421.84L365.12,285.63A29.18,29.18,0,0,0,336.37,261.47Z"/><circle class="cls-3" cx="258.74" cy="358.76" r="77.83"/><text class="cls-4" transform="translate(198.89 373.34)">1 КГ</text><rect class="cls-5" x="278.19" y="211.61" width="4.86" height="19.46"/><rect class="cls-5" x="234.41" y="211.61" width="4.86" height="19.46"/><path class="cls-6" d="M380.15,155.67H137.33a4.87,4.87,0,0,0-4.3,7.16l24.6,46.2a4.87,4.87,0,0,0,4.3,2.58H355.54a4.86,4.86,0,0,0,4.3-2.58l24.6-46.2A4.87,4.87,0,0,0,380.15,155.67Z"/><line class="cls-7" x1="99.42" y1="498.62" x2="325.62" y2="498.62"/><line class="cls-7" x1="90.91" y1="510.78" x2="168.74" y2="510.78"/><line class="cls-7" x1="229.55" y1="512" x2="387.65" y2="512"/><line class="cls-7" x1="397.99" y1="512" x2="421.09" y2="512"/><path class="cls-8" d="M254.11,1.17a2.11,2.11,0,0,1,3.78,0l37.68,75.36,4.18,8.35C316,117.4,292.36,155.67,256,155.67h0c-36.36,0-60-38.27-43.75-70.79l4.18-8.35Z"/></svg>