<svg id="Main" xmlns="http://www.w3.org/2000/svg" xmlns:xlink="http://www.w3.org/1999/xlink" viewBox="0 0 512 512"><defs><style>.cls-1{fill:#f7931e;}.cls-2{fill:#fbbc5a;}.cls-3{fill:#6667ab;}</style><symbol id="Meteor_4" data-name="Meteor 4" viewBox="0 0 153.58 93.14"><path class="cls-1" d="M137.4,2.16c-16.08-8.24-53.85,9-69,19.24C25.91,50.18,0,85.09,0,92.49,0,99,37.58,55.23,78,47.12c23.78-4.77,46.49,8.07,60.78,2.78,9.71-3.6,14.83-13.31,14.83-23.33S149.07,8.15,137.4,2.16Zm-8.83,46.41a22,22,0,1,1,22-22A22,22,0,0,1,128.57,48.57Z"/><circle class="cls-2" cx="128.58" cy="26.57" r="18"/></symbol></defs><g id="Hole"><circle class="cls-3" cx="256" cy="256" r="94"/></g><g id="Meteors_4" data-name="Meteors 4"><use id="Meteor" width="153.58" height="93.14" transform="matrix(-0.88, -1.48, 1.53, -0.85, 173.03, 557.13)" xlink:href="#Meteor_4"/><use id="Meteor-2" data-name="Meteor" width="153.58" height="93.14" transform="matrix(-0.88, 1.48, -1.53, -0.85, 572.8, 176.51)" xlink:href="#Meteor_4"/><use id="Meteor-3" data-name="Meteor" width="153.58" height="93.14" transform="translate(32 32.12) scale(1.77 1.71)" xlink:href="#Meteor_4"/></g></svg>